<?xml version="1.0" standalone="no"?>
<!DOCTYPE svg PUBLIC "-//W3C//DTD SVG 20010904//EN"
 "http://www.w3.org/TR/2001/REC-SVG-20010904/DTD/svg10.dtd">
<svg version="1.0" xmlns="http://www.w3.org/2000/svg"
 width="480.000000pt" height="480.000000pt" viewBox="0 0 480.000000 480.000000"
 preserveAspectRatio="xMidYMid meet">
<metadata>
Created by potrace 1.14, written by Peter Selinger 2001-2017
</metadata>
<g transform="translate(0.000000,480.000000) scale(0.100000,-0.100000)"
fill="#000000" stroke="none">
<path d="M2262 4349 c-382 -24 -786 -179 -1081 -417 l-64 -52 -209 0 -208 0 0
-249 0 -250 -49 -98 c-157 -312 -220 -604 -208 -958 10 -287 76 -550 197 -791
l60 -119 0 -252 0 -253 209 0 209 0 99 -73 c295 -221 613 -347 975 -386 492
-54 1022 97 1403 400 l75 59 210 0 210 0 0 249 0 249 65 133 c75 157 125 302
162 478 25 116 27 145 28 366 0 251 -6 305 -51 486 -35 141 -78 258 -145 395
l-59 121 0 246 0 247 -207 0 -208 0 -50 41 c-299 242 -704 404 -1062 424 -54
3 -116 7 -138 9 -22 1 -95 -1 -163 -5z"/>
</g>
</svg>
